<?xml version="1.0" encoding="UTF-8"?>
<svg id="_圖層_2" data-name="圖層 2" xmlns="http://www.w3.org/2000/svg" viewBox="0 0 36 36">
  <defs>
    <style>
      .cls-1 {
        fill: #fff;
      }

      .cls-2 {
        fill: #aaa;
      }
    </style>
  </defs>
  <g id="content">
    <g>
      <circle class="cls-1" cx="18" cy="18" r="18"/>
      <path class="cls-2" d="M18,6.19c-3.19,0-3.59,.01-4.85,.07-1.25,.06-2.11,.26-2.85,.55-.77,.3-1.43,.7-2.08,1.36-.65,.65-1.06,1.31-1.36,2.08-.29,.75-.49,1.6-.55,2.85-.06,1.25-.07,1.65-.07,4.85s.01,3.59,.07,4.85c.06,1.25,.26,2.11,.55,2.85,.3,.77,.7,1.43,1.36,2.08,.65,.65,1.31,1.06,2.08,1.36,.75,.29,1.6,.49,2.85,.55,1.25,.06,1.65,.07,4.85,.07s3.59-.01,4.85-.07c1.25-.06,2.11-.26,2.85-.55,.77-.3,1.43-.7,2.08-1.36,.65-.65,1.06-1.31,1.36-2.08,.29-.75,.49-1.6,.55-2.85,.06-1.25,.07-1.65,.07-4.85s-.01-3.59-.07-4.85c-.06-1.25-.26-2.11-.55-2.85-.3-.77-.7-1.43-1.36-2.08-.65-.65-1.31-1.06-2.08-1.36-.75-.29-1.6-.49-2.86-.55-1.25-.06-1.65-.07-4.85-.07h0Zm-1.05,2.12c.31,0,.66,0,1.05,0,3.14,0,3.51,.01,4.75,.07,1.15,.05,1.77,.24,2.18,.4,.55,.21,.94,.47,1.35,.88,.41,.41,.67,.8,.88,1.35,.16,.41,.35,1.04,.4,2.18,.06,1.24,.07,1.61,.07,4.75s-.01,3.51-.07,4.75c-.05,1.15-.24,1.77-.4,2.18-.21,.55-.47,.94-.88,1.35-.41,.41-.8,.67-1.35,.88-.41,.16-1.04,.35-2.18,.41-1.24,.06-1.61,.07-4.75,.07s-3.51-.01-4.75-.07c-1.15-.05-1.77-.24-2.18-.41-.55-.21-.94-.47-1.35-.88-.41-.41-.67-.8-.88-1.35-.16-.41-.35-1.04-.4-2.18-.06-1.24-.07-1.61-.07-4.75s.01-3.51,.07-4.75c.05-1.15,.24-1.77,.4-2.18,.21-.55,.47-.94,.88-1.35,.41-.41,.8-.67,1.35-.88,.41-.16,1.04-.35,2.18-.41,1.08-.05,1.5-.06,3.7-.07h0Zm7.33,1.95c-.78,0-1.41,.63-1.41,1.41s.63,1.41,1.41,1.41,1.41-.63,1.41-1.41-.63-1.41-1.41-1.41h0Zm-6.28,1.65c-3.33,0-6.04,2.7-6.04,6.04s2.7,6.04,6.04,6.04,6.04-2.7,6.04-6.04-2.7-6.04-6.04-6.04h0Zm0,2.12c2.16,0,3.92,1.75,3.92,3.92s-1.75,3.92-3.92,3.92-3.92-1.75-3.92-3.92,1.75-3.92,3.92-3.92Z"/>
    </g>
  </g>
</svg>