<?xml version="1.0" encoding="UTF-8"?>
<svg id="_圖層_2" data-name="圖層 2" xmlns="http://www.w3.org/2000/svg" viewBox="0 0 25 25">
  <defs>
    <style>
      .cls-1 {
        fill: #c79f62;
      }

      .cls-2 {
        fill: none;
        stroke: #c79f62;
        stroke-miterlimit: 10;
      }
    </style>
  </defs>
  <g id="content">
    <g>
      <circle class="cls-2" cx="12.5" cy="12.5" r="12"/>
      <path class="cls-1" d="M8.86,7.83c.04,.59,.14,1.17,.3,1.73l-.8,.8c-.27-.8-.45-1.65-.51-2.53h1.01m6.57,8.01c.57,.16,1.15,.26,1.73,.3v.99c-.88-.06-1.73-.23-2.53-.5l.8-.79M9.5,6.5h-2.33c-.37,0-.67,.3-.67,.67,0,6.26,5.07,11.33,11.33,11.33,.37,0,.67-.3,.67-.67v-2.33c0-.37-.3-.67-.67-.67-.83,0-1.63-.13-2.38-.38-.07-.03-.14-.03-.21-.03-.17,0-.34,.07-.47,.19l-1.47,1.47c-1.89-.97-3.43-2.51-4.39-4.39l1.47-1.47c.19-.19,.24-.45,.17-.68-.25-.75-.38-1.55-.38-2.38,0-.37-.3-.67-.67-.67Z"/>
    </g>
  </g>
</svg>