<?xml version="1.0" encoding="UTF-8"?>
<svg id="_圖層_2" data-name="圖層 2" xmlns="http://www.w3.org/2000/svg" viewBox="0 0 25 25">
  <defs>
    <style>
      .cls-1 {
        fill: #c79f62;
      }

      .cls-2 {
        fill: none;
        stroke: #c79f62;
        stroke-miterlimit: 10;
      }
    </style>
  </defs>
  <g id="content">
    <g>
      <circle class="cls-2" cx="12.5" cy="12.5" r="12"/>
      <path class="cls-1" d="M19.16,9.5c0-.48-.25-.9-.63-1.13l-6.03-3.53-6.03,3.53c-.38,.23-.63,.65-.63,1.13v6.67c0,.73,.6,1.33,1.33,1.33h10.67c.73,0,1.33-.6,1.33-1.33v-6.67Zm-1.34,0h0s-5.33,3.33-5.33,3.33l-5.33-3.33,5.33-3.12,5.33,3.12Zm-10.66,6.67v-5.11l5.33,3.35,5.33-3.33v5.09s-10.66,0-10.66,0Z"/>
    </g>
  </g>
</svg>