<?xml version="1.0" encoding="UTF-8"?>
<svg id="_圖層_2" data-name="圖層 2" xmlns="http://www.w3.org/2000/svg" viewBox="0 0 25 25">
  <defs>
    <style>
      .cls-1 {
        fill: #c79f62;
      }

      .cls-2 {
        fill: none;
        stroke: #c79f62;
        stroke-miterlimit: 10;
      }
    </style>
  </defs>
  <g id="content">
    <g>
      <circle class="cls-2" cx="12.5" cy="12.5" r="12"/>
      <path class="cls-1" d="M12.5,5.83c-2.58,0-4.67,2.09-4.67,4.67,0,3.5,4.67,8.67,4.67,8.67,0,0,4.67-5.17,4.67-8.67,0-2.58-2.09-4.67-4.67-4.67Zm-3.33,4.67c0-1.84,1.49-3.33,3.33-3.33s3.33,1.49,3.33,3.33-1.92,4.79-3.33,6.59c-1.39-1.78-3.33-4.69-3.33-6.59Z"/>
      <path class="cls-1" d="M12.5,8.83c.92,0,1.67,.75,1.67,1.67s-.75,1.67-1.67,1.67-1.67-.75-1.67-1.67,.75-1.67,1.67-1.67Z"/>
    </g>
  </g>
</svg>