<svg id="圖層_1" data-name="圖層 1" xmlns="http://www.w3.org/2000/svg" viewBox="0 0 14 12"><defs><style>.cls-1{fill:none;}.cls-2{fill:#ae403f;}</style></defs><title>heart-color</title><path class="cls-1" d="M439.1,600.63a3.85,3.85,0,0,0-3.12,1.49,3.92,3.92,0,0,0-7,2.39c0,4.37,6.49,7.91,6.77,8.06a.48.48,0,0,0,.24.06.46.46,0,0,0,.23-.06c.28-.15,6.77-3.69,6.77-8.06a3.89,3.89,0,0,0-3.88-3.88Z" transform="translate(-428.97 -600.63)"/><path class="cls-2" d="M436,611.56c-1.15-.67-6-3.7-6-7a2.93,2.93,0,0,1,.85-2,2.87,2.87,0,0,1,2-.84,2.78,2.78,0,0,1,2.66,1.69.51.51,0,0,0,.19.22.47.47,0,0,0,.28.09.44.44,0,0,0,.27-.09.45.45,0,0,0,.19-.22,2.79,2.79,0,0,1,2.66-1.69,2.89,2.89,0,0,1,2.88,2.88C442,607.86,437.12,610.89,436,611.56Z" transform="translate(-428.97 -600.63)"/></svg>