<svg id="圖層_1" data-name="圖層 1" xmlns="http://www.w3.org/2000/svg" viewBox="0 0 1441.74 53.5"><defs><style>.cls-1{fill:#fff;}</style></defs><title>second-page-bg-text1-phone</title><path class="cls-1" d="M-1993-543.14a3.28,3.28,0,0,0,2.4-1,3.59,3.59,0,0,0,1.1-2.46v-30.64a2.77,2.77,0,0,0-1-2.19,3.57,3.57,0,0,0-2.46-.93h-.66l0-.54h16a22.3,22.3,0,0,0,3.67-.33,14.86,14.86,0,0,0,2.84-.66V-575h-.54v-1a3,3,0,0,0-.93-2.24,3.05,3.05,0,0,0-2.14-1H-1986v16.91h9.25a2.72,2.72,0,0,0,1.86-.83,2.58,2.58,0,0,0,.76-1.91v-.77h.55v8.65h-.55V-558a2.53,2.53,0,0,0-.76-1.86,2.54,2.54,0,0,0-1.81-.82h-9.3v16.35h7.83a9.35,9.35,0,0,0,6.18-1.8,13.45,13.45,0,0,0,3.55-5.36h.55l-3.17,8.86h-22.7v-.55Zm-27.12,1.31q-8.65,0-14.12-5.52t-5.41-14.39q0-9,5.41-14.44t14.44-5.47a23,23,0,0,1,13,3.72l1.09,7.71h-.49a12,12,0,0,0-4.87-7.22,14.77,14.77,0,0,0-8.7-2.57,14.45,14.45,0,0,0-11.48,5q-4.28,5-4.27,13.18t4.21,13.24a14.54,14.54,0,0,0,11.22,5.14,15.72,15.72,0,0,0,10.23-3.33q4.43-3.62,5.36-11.76h.43l-.65,8.58Q-2009.76-541.82-2020.15-541.83Zm-29.56-38.51a3.19,3.19,0,0,0-2.35,1,3.21,3.21,0,0,0-1,2.3v28.22a46.07,46.07,0,0,0,.38,6l.11,1h-.49l-29.81-31.83v27.24a3.18,3.18,0,0,0,1,2.35,3.31,3.31,0,0,0,2.35.93h1v.55h-11.27v-.55h1a3.29,3.29,0,0,0,2.35-.93,3.26,3.26,0,0,0,1-2.41v-28.39a42.47,42.47,0,0,0-.38-6l-.11-.87h.54l29.82,31.83V-577a3.31,3.31,0,0,0-1-2.35,3.21,3.21,0,0,0-2.35-1h-1v-.54h11.27v.54Zm-73.63,22.81h13.46l-6.56-17.56Zm26.92,14.39h.44v.55h-12.31v-.55h.49a2,2,0,0,0,1.7-.71,2.36,2.36,0,0,0,.6-1.42,4.24,4.24,0,0,0-.22-1.31l-3.5-9.3H-2124l-3.67,9.35a4.34,4.34,0,0,0-.22,1.31,2.5,2.5,0,0,0,.55,1.37,2.18,2.18,0,0,0,1.75.71h.49v.55h-11v-.55h.49a4.79,4.79,0,0,0,2.68-.87,6.23,6.23,0,0,0,2.13-2.57l12.37-29.44q2-4.43,2-5.63h.49l14.66,35.07a6,6,0,0,0,2.08,2.57A4.9,4.9,0,0,0-2096.42-543.14Zm-58,0a3.3,3.3,0,0,0,2.41-1,3.58,3.58,0,0,0,1.09-2.46v-30.37a3.35,3.35,0,0,0-1.09-2.4,3.27,3.27,0,0,0-2.41-1h-.71v-.54h12v.54h-.71a3.44,3.44,0,0,0-2.46,1,3.46,3.46,0,0,0-1,2.4v30.37a3.4,3.4,0,0,0,1,2.46,3.47,3.47,0,0,0,2.46,1h.71v.55h-12v-.55Zm-34.29,0a3.3,3.3,0,0,0,2.41-1,3.58,3.58,0,0,0,1.09-2.46v-30.31a3.37,3.37,0,0,0-1.09-2.41,3.21,3.21,0,0,0-2.41-1h-.71v-.54h12v.54h-.71a3.33,3.33,0,0,0-3,1.7,3.33,3.33,0,0,0-.49,1.75v32.6h7.82a9.34,9.34,0,0,0,6.18-1.8,13.46,13.46,0,0,0,3.56-5.36h.54l-3.17,8.86h-22.7v-.55Zm-34.29,0a3.3,3.3,0,0,0,2.41-1,3.62,3.62,0,0,0,1.09-2.46v-30.31a3.41,3.41,0,0,0-1.09-2.41,3.21,3.21,0,0,0-2.41-1h-.71v-.54h12v.54h-.71a3.32,3.32,0,0,0-3,1.7,3.33,3.33,0,0,0-.49,1.75v32.6h7.82a9.34,9.34,0,0,0,6.18-1.8,13.46,13.46,0,0,0,3.56-5.36h.54l-3.17,8.86h-22.7v-.55ZM-2258-558h13.84l-4.32-12.75a49.23,49.23,0,0,0-2.3-5.74Zm-5.86-24.78a17.75,17.75,0,0,1,6.84-1.48,9.88,9.88,0,0,1,5.64,2,14.65,14.65,0,0,1,3.55,4.27,48.64,48.64,0,0,1,3.34,7.93l6.67,18.93a53.63,53.63,0,0,0,4.65,10.06,30.63,30.63,0,0,0,4.38,5.64,11.45,11.45,0,0,0,4.1,2.68,10.92,10.92,0,0,0,3.5.77,13.43,13.43,0,0,0,2.52-.22l0,.54a16,16,0,0,1-5.14.88,10.84,10.84,0,0,1-5-1.31,17.12,17.12,0,0,1-4.71-3.56q-4.7-4.75-8-14.5l-2.14-6.23h-15l-3.78,9.74a3.38,3.38,0,0,0-.27,1.31,2.46,2.46,0,0,0,.55,1.42,2.24,2.24,0,0,0,1.8.71h.44v.55h-11v-.55h.49a4.91,4.91,0,0,0,2.58-.76,6.18,6.18,0,0,0,2.07-2.41l13.57-32.5c-2-2.8-4.41-4.21-7.33-4.21a12.44,12.44,0,0,0-4.21.82Zm-56.51,39.6a3.27,3.27,0,0,0,2.4-1,3.59,3.59,0,0,0,1.1-2.46v-30.64a2.77,2.77,0,0,0-1-2.19,3.56,3.56,0,0,0-2.46-.93h-.66l-.05-.54h16a22.3,22.3,0,0,0,3.67-.33,14.86,14.86,0,0,0,2.84-.66V-575h-.54v-1a3,3,0,0,0-.93-2.24,3.05,3.05,0,0,0-2.14-1h-11.16v16.91h9.25a2.72,2.72,0,0,0,1.86-.83,2.58,2.58,0,0,0,.76-1.91v-.77h.55v8.65h-.55V-558a2.53,2.53,0,0,0-.76-1.86,2.54,2.54,0,0,0-1.81-.82h-9.3v16.35h7.83a9.34,9.34,0,0,0,6.18-1.8,13.35,13.35,0,0,0,3.55-5.36h.55l-3.17,8.86h-22.7v-.55Zm-27.71,1.31q-8.74,0-14.22-5.52t-5.42-14.39q0-8.91,5.42-14.38t14.22-5.53a23.94,23.94,0,0,1,13.3,3.72l1.09,7.71h-.49a12.09,12.09,0,0,0-4.87-7.22,15.22,15.22,0,0,0-9-2.57,14.16,14.16,0,0,0-11.27,5q-4.26,5-4.26,13.24t4.26,13.24a14.35,14.35,0,0,0,11.27,5,18.25,18.25,0,0,0,6.73-1.25,17.55,17.55,0,0,0,5.64-3.51v-9.68a2.15,2.15,0,0,0-.77-1.8,2.86,2.86,0,0,0-2-.66h-.88v-.55h10.72v.55h-.82a3,3,0,0,0-2.08.66,2.09,2.09,0,0,0-.65,1.8v9a17.06,17.06,0,0,1-3.4,3.33,19.35,19.35,0,0,1-5.3,2.63A22.55,22.55,0,0,1-2348.07-541.83Zm-53.81-1.31a3.29,3.29,0,0,0,2.41-1,3.63,3.63,0,0,0,1.1-2.46v-30.64a2.77,2.77,0,0,0-1-2.19,3.6,3.6,0,0,0-2.47-.93h-.65l-.06-.54h16a22.39,22.39,0,0,0,3.67-.33,15.06,15.06,0,0,0,2.84-.66V-575h-.55v-1a3,3,0,0,0-.93-2.24,3,3,0,0,0-2.13-1h-11.16v16.91h9.25a2.72,2.72,0,0,0,1.86-.83,2.58,2.58,0,0,0,.76-1.91v-.77h.55v8.65h-.55V-558a2.53,2.53,0,0,0-.76-1.86,2.54,2.54,0,0,0-1.81-.82h-9.3v16.35h7.82a9.38,9.38,0,0,0,6.19-1.8,13.45,13.45,0,0,0,3.55-5.36h.55l-3.17,8.86h-22.71v-.55Zm-34.29,0a3.3,3.3,0,0,0,2.41-1,3.58,3.58,0,0,0,1.09-2.46v-30.31a3.37,3.37,0,0,0-1.09-2.41,3.21,3.21,0,0,0-2.41-1h-.71v-.54h12v.54h-.71a3.33,3.33,0,0,0-3,1.7,3.33,3.33,0,0,0-.49,1.75v32.6h7.82a9.34,9.34,0,0,0,6.18-1.8,13.36,13.36,0,0,0,3.56-5.36h.55l-3.18,8.86h-22.7v-.55Zm-34.29,0a3.3,3.3,0,0,0,2.41-1,3.62,3.62,0,0,0,1.09-2.46v-30.31a3.41,3.41,0,0,0-1.09-2.41,3.21,3.21,0,0,0-2.41-1h-.71v-.54h12v.54h-.71a3.32,3.32,0,0,0-3,1.7,3.33,3.33,0,0,0-.49,1.75v32.6h7.82a9.34,9.34,0,0,0,6.18-1.8,13.46,13.46,0,0,0,3.56-5.36h.54l-3.17,8.86h-22.7v-.55Zm-42.68-5.36a15.82,15.82,0,0,0,12.2,5,15.65,15.65,0,0,0,12.15-5q4.65-5,4.65-13.24t-4.65-13.24a15.69,15.69,0,0,0-12.15-5,15.85,15.85,0,0,0-12.2,5q-4.59,5-4.59,13.24T-2513.14-548.5Zm-3-27.62q5.85-5.53,15.15-5.53t15.21,5.53q5.85,5.46,5.85,14.38t-5.85,14.44q-5.85,5.47-15.21,5.47t-15.15-5.47q-5.85-5.52-5.85-14.44T-2516.09-576.12Zm-15.08,14.33q0,9.4-5.09,14.71t-14.28,5.25a24,24,0,0,1-11.27-2.62,19.69,19.69,0,0,1-7.76-7.17,19.16,19.16,0,0,1-2.74-10.12,19.26,19.26,0,0,1,2.74-10.17A19.09,19.09,0,0,1-2562-579a22,22,0,0,1,10.72-2.63,28.9,28.9,0,0,1,7.55,1,21.12,21.12,0,0,1,6.45,2.68l1.1,7.71h-.5a11.39,11.39,0,0,0-5.3-7.16,17,17,0,0,0-9.25-2.63,15.92,15.92,0,0,0-12.14,5.2,18.23,18.23,0,0,0-4.82,13,18.45,18.45,0,0,0,5,13.13q5,5.25,13.13,5.25a17.53,17.53,0,0,0,13.18-5.25q5.15-5.25,5.15-14.39h.54Q-2531.17-562.45-2531.17-561.79Zm-69.47-18.55a3.21,3.21,0,0,0-2.35,1,3.25,3.25,0,0,0-1,2.3v28.22a44.35,44.35,0,0,0,.39,6l.11,1h-.5l-29.81-31.83v27.24a3.22,3.22,0,0,0,1,2.35,3.32,3.32,0,0,0,2.36.93h1v.55h-11.27v-.55h1a3.31,3.31,0,0,0,2.35-.93,3.29,3.29,0,0,0,1-2.41v-28.39a41,41,0,0,0-.38-6l-.11-.87h.55l29.81,31.83V-577a3.27,3.27,0,0,0-1-2.35,3.19,3.19,0,0,0-2.35-1h-1v-.54h11.27v.54Zm-82.31,31.84a15.82,15.82,0,0,0,12.2,5,15.65,15.65,0,0,0,12.15-5q4.65-5,4.65-13.24T-2658.6-575a15.69,15.69,0,0,0-12.15-5,15.85,15.85,0,0,0-12.2,5q-4.59,5-4.59,13.24T-2682.95-548.5Zm-3-27.62q5.85-5.53,15.15-5.53t15.21,5.53q5.85,5.46,5.85,14.38t-5.85,14.44q-5.85,5.47-15.21,5.47t-15.15-5.47q-5.85-5.52-5.85-14.44T-2685.9-576.12Zm-25.84,33a3.3,3.3,0,0,0,2.41-1,3.62,3.62,0,0,0,1.09-2.46v-30.37a3.39,3.39,0,0,0-1.09-2.4,3.27,3.27,0,0,0-2.41-1h-.71v-.54h12v.54h-.71a3.44,3.44,0,0,0-2.46,1,3.42,3.42,0,0,0-1,2.4v30.37a3.36,3.36,0,0,0,1,2.46,3.47,3.47,0,0,0,2.46,1h.71v.55h-12v-.55Zm-10-32.88a3.06,3.06,0,0,0-.93-2.24,3.16,3.16,0,0,0-2.19-1h-10.4v32.77a3.53,3.53,0,0,0,1,2.41,3.5,3.5,0,0,0,2.46,1h.72v.55h-12v-.55h.71a3.28,3.28,0,0,0,2.4-1,3.32,3.32,0,0,0,1.1-2.36V-579.3h-10.4a3.21,3.21,0,0,0-2.24,1,3.17,3.17,0,0,0-.87,2.24v.93l-.55.06v-6.89a15.25,15.25,0,0,0,2.84.65,23.26,23.26,0,0,0,3.72.33h18.49a21.58,21.58,0,0,0,4.43-.38,19.27,19.27,0,0,0,2.19-.6V-575l-.54-.06Zm-59.45,18.49h13.46l-6.56-17.56Zm26.92,14.39h.44v.55h-12.31v-.55h.49a2,2,0,0,0,1.7-.71,2.36,2.36,0,0,0,.6-1.42,4.24,4.24,0,0,0-.22-1.31l-3.5-9.3h-14.77l-3.67,9.35a4.34,4.34,0,0,0-.22,1.31,2.5,2.5,0,0,0,.55,1.37,2.18,2.18,0,0,0,1.75.71h.49v.55h-11v-.55h.49a4.79,4.79,0,0,0,2.68-.87,6.23,6.23,0,0,0,2.13-2.57l12.37-29.44q2-4.43,2-5.63h.49l14.66,35.07A6.06,6.06,0,0,0-2757-544,4.9,4.9,0,0,0-2754.23-543.14Zm-62.3,1.31q-8.64,0-14.11-5.52t-5.42-14.39q0-9,5.42-14.44t14.44-5.47a23,23,0,0,1,13,3.72l1.09,7.71h-.49a12,12,0,0,0-4.87-7.22,14.77,14.77,0,0,0-8.7-2.57,14.47,14.47,0,0,0-11.49,5q-4.26,5-4.26,13.18t4.21,13.24a14.52,14.52,0,0,0,11.21,5.14,15.69,15.69,0,0,0,10.23-3.33q4.44-3.62,5.36-11.76h.44l-.65,8.58Q-2806.13-541.82-2816.53-541.83Zm-29.13-38.51h-.87a3,3,0,0,0-2,.77,2.47,2.47,0,0,0-.87,1.8v21.67a13.79,13.79,0,0,1-4.05,10.34q-4,3.93-10.78,3.93a15.51,15.51,0,0,1-10.94-3.88,13.59,13.59,0,0,1-4.15-10.34V-577.6a2.55,2.55,0,0,0-1.43-2.41,3.21,3.21,0,0,0-1.47-.33h-.88v-.54H-2872v.54h-.88a2.84,2.84,0,0,0-2,.77,2.5,2.5,0,0,0-.88,1.86v20.9a14.19,14.19,0,0,0,3.17,9.62,10.88,10.88,0,0,0,8.59,3.67,11.55,11.55,0,0,0,8.7-3.45,12.66,12.66,0,0,0,3.34-9.13v-21.61a2.5,2.5,0,0,0-.88-1.86,2.84,2.84,0,0,0-2-.77h-.88v-.54h10.12Zm-76.85,1.1v35h10.77a15,15,0,0,0,8.1-2.19,14.43,14.43,0,0,0,5.47-6.13,20.54,20.54,0,0,0,2-9.19q0-7.87-4.32-12.69a14.28,14.28,0,0,0-11.22-4.81Zm10.77-1.64q8.76,0,14.17,5.3t5.47,13.84q0,8.6-5.47,13.9t-14.17,5.25h-18.54v-.55h.71a3.3,3.3,0,0,0,2.41-1,3.62,3.62,0,0,0,1.09-2.46v-30.64a2.74,2.74,0,0,0-1.09-2.19,3.52,3.52,0,0,0-2.41-.93h-.66l-.05-.54Zm-54.9,37.74a3.3,3.3,0,0,0,2.41-1,3.62,3.62,0,0,0,1.09-2.46v-30.64a2.77,2.77,0,0,0-1-2.19,3.56,3.56,0,0,0-2.46-.93h-.66l0-.54h11.1a22.39,22.39,0,0,0,3.67-.33,15.06,15.06,0,0,0,2.84-.66V-575h-.55v-1a3,3,0,0,0-.93-2.24,3,3,0,0,0-2.13-1h-6.23v16.91h10.39a2.72,2.72,0,0,0,1.86-.83,2.58,2.58,0,0,0,.76-1.91v-.77h.55v8.65h-.55V-558a2.53,2.53,0,0,0-.76-1.86,2.54,2.54,0,0,0-1.81-.82h-10.44v16.35h11.65a9.34,9.34,0,0,0,6.18-1.8,13.35,13.35,0,0,0,3.55-5.36h.55l-3.17,8.86h-26.53v-.55Zm-49.1-1.69a16.86,16.86,0,0,1-.17-3,14.91,14.91,0,0,1,.82-4.65h.5a12.1,12.1,0,0,0-.06,1.21,8,8,0,0,0,2,5.58,7,7,0,0,0,5.36,2.18,7.83,7.83,0,0,0,5.63-2.08,6.75,6.75,0,0,0,2.24-5.19,6.66,6.66,0,0,0-2.13-5.14l-10.5-9.74a8.71,8.71,0,0,1-3-6.62,9.33,9.33,0,0,1,2.57-6.62,9.24,9.24,0,0,1,7.06-2.79,23.06,23.06,0,0,1,4.71.55h2.13v6.73h-.49a5.13,5.13,0,0,0-1.81-4.11,6.65,6.65,0,0,0-4.54-1.53,6.47,6.47,0,0,0-4.7,1.86,6.31,6.31,0,0,0-1.86,4.65,6.34,6.34,0,0,0,2.18,4.81l10.78,10a8.93,8.93,0,0,1,2.74,6.89,9.87,9.87,0,0,1-2.79,7.22,10.06,10.06,0,0,1-7.44,2.79,19.18,19.18,0,0,1-5.15-.76A8.79,8.79,0,0,1-3015.74-544.83ZM-3025-576a3.06,3.06,0,0,0-.93-2.24,3.16,3.16,0,0,0-2.19-1h-10.39v32.77a3.44,3.44,0,0,0,1,2.41,3.47,3.47,0,0,0,2.46,1h.71v.55h-12v-.55h.71a3.3,3.3,0,0,0,2.41-1,3.35,3.35,0,0,0,1.09-2.36V-579.3h-10.39a3.21,3.21,0,0,0-2.25,1,3.17,3.17,0,0,0-.87,2.24v.93l-.55.06v-6.89a15.41,15.41,0,0,0,2.85.65,23.26,23.26,0,0,0,3.72.33h18.49a21.72,21.72,0,0,0,4.43-.38,20.72,20.72,0,0,0,2.19-.6V-575l-.55-.06Zm-56.08-3.17h-3.5v32.61a3.47,3.47,0,0,0,1,2.46,3.54,3.54,0,0,0,2.51,1h.66l0,.55h-12v-.55h.72a3.28,3.28,0,0,0,2.4-1,3.38,3.38,0,0,0,1.1-2.41v-30.36a3.38,3.38,0,0,0-1.1-2.41,3.19,3.19,0,0,0-2.4-1h-.72v-.54h14.77a10.71,10.71,0,0,1,7.83,2.79,9.5,9.5,0,0,1,2.84,7.16,11.43,11.43,0,0,1-2.73,7.61,8.31,8.31,0,0,1-6.57,3.17,6.74,6.74,0,0,1,1.92,1.53,17.24,17.24,0,0,1,2,2.3c3.14,4.48,5.18,7.26,6.13,8.31s1.62,1.74,2,2.14.84.73,1.31,1.09a7.37,7.37,0,0,0,1.43.88,7.65,7.65,0,0,0,3.39.76v.55h-3a11.5,11.5,0,0,1-4.38-.82,12.85,12.85,0,0,1-3.06-1.75c-.66-.62-1.24-1.21-1.75-1.75s-1.82-2.48-4.05-5.69-3.52-5-3.88-5.47-.75-.93-1.15-1.37a5,5,0,0,0-3.5-1.86v-.55a8.75,8.75,0,0,0,1.15.06c.47,0,1.05,0,1.75-.06q6.78-.17,8.53-5.69a7,7,0,0,0,.33-2v-1.26a9.58,9.58,0,0,0-1.92-5.91,6.39,6.39,0,0,0-4.86-2.4C-3078.72-579.17-3079.81-579.19-3081.13-579.19ZM-3126.64-558h13.84l-4.32-12.75a49.47,49.47,0,0,0-2.29-5.74Zm-5.85-24.78a17.71,17.71,0,0,1,6.84-1.48,9.85,9.85,0,0,1,5.63,2,14.49,14.49,0,0,1,3.56,4.27,49.57,49.57,0,0,1,3.34,7.93l6.67,18.93A52.39,52.39,0,0,0-3101.8-541a29.78,29.78,0,0,0,4.38,5.64,11.45,11.45,0,0,0,4.1,2.68,10.92,10.92,0,0,0,3.5.77,13.43,13.43,0,0,0,2.52-.22l.05.54a16,16,0,0,1-5.14.88,10.81,10.81,0,0,1-5-1.31,17.12,17.12,0,0,1-4.71-3.56q-4.7-4.75-8-14.5l-2.14-6.23h-15l-3.77,9.74a3.39,3.39,0,0,0-.28,1.31,2.53,2.53,0,0,0,.55,1.42,2.24,2.24,0,0,0,1.81.71h.43v.55h-11v-.55h.49a4.87,4.87,0,0,0,2.57-.76,6.2,6.2,0,0,0,2.08-2.41l13.57-32.5c-2-2.8-4.41-4.21-7.33-4.21a12.39,12.39,0,0,0-4.21.82Zm-32.37,2.4a3.21,3.21,0,0,0-2.36,1,3.25,3.25,0,0,0-1,2.3v28.22a44.35,44.35,0,0,0,.39,6l.11,1h-.5l-29.81-31.83v27.24a3.19,3.19,0,0,0,1,2.35,3.29,3.29,0,0,0,2.35.93h1v.55H-3205v-.55h1a3.31,3.31,0,0,0,2.35-.93,3.26,3.26,0,0,0,1-2.41v-28.39a40.91,40.91,0,0,0-.39-6l-.11-.87h.55l29.81,31.83V-577a3.23,3.23,0,0,0-1-2.35,3.19,3.19,0,0,0-2.35-1h-1v-.54h11.27v.54Zm-73.63,22.81H-3225l-6.57-17.56Zm26.91,14.39h.44v.55h-12.31v-.55h.5a2,2,0,0,0,1.69-.71,2.36,2.36,0,0,0,.6-1.42,4,4,0,0,0-.22-1.31l-3.5-9.3h-14.77l-3.66,9.35a4,4,0,0,0-.22,1.31,2.43,2.43,0,0,0,.55,1.37,2.17,2.17,0,0,0,1.75.71h.49v.55h-11v-.55h.5a4.82,4.82,0,0,0,2.68-.87,6.38,6.38,0,0,0,2.13-2.57l12.36-29.44q2-4.43,2-5.63h.49l14.66,35.07a5.92,5.92,0,0,0,2.08,2.57A4.87,4.87,0,0,0-3211.58-543.14Zm-49.09-37.74h10.78v.54h-.44a5.36,5.36,0,0,0-2.85.88,4.65,4.65,0,0,0-2,2.51l-9.08,28.94a23.53,23.53,0,0,0-1.2,6.08h-.49l-11.16-31.3L-3285.4-548a24.9,24.9,0,0,0-1.15,6.08h-.49L-3299.46-577a4.86,4.86,0,0,0-2-2.46,5.07,5.07,0,0,0-2.79-.88h-.44v-.54h12.15v.54h-.49a2.12,2.12,0,0,0-1.76.77,2.28,2.28,0,0,0-.54,1.37,4.15,4.15,0,0,0,.16,1.2l8.32,26.64,10.17-31.4.49.06,10.78,30.25,7.33-25.6a4.65,4.65,0,0,0,.17-1.21,2.32,2.32,0,0,0-.55-1.37,2,2,0,0,0-1.7-.71h-.49Zm-62.41,37.74a3.3,3.3,0,0,0,2.41-1,3.62,3.62,0,0,0,1.09-2.46v-30.37a3.39,3.39,0,0,0-1.09-2.4,3.27,3.27,0,0,0-2.41-1h-.71v-.54h12v.54h-.71a3.44,3.44,0,0,0-2.46,1,3.42,3.42,0,0,0-1,2.4v30.37a3.36,3.36,0,0,0,1,2.46,3.47,3.47,0,0,0,2.46,1h.71v.55h-12v-.55Zm-35.06-14.39h13.46l-6.57-17.56Zm26.91,14.39h.44v.55h-12.31v-.55h.49a2,2,0,0,0,1.7-.71,2.36,2.36,0,0,0,.6-1.42,4,4,0,0,0-.22-1.31l-3.5-9.3h-14.77l-3.66,9.35a4,4,0,0,0-.22,1.31,2.43,2.43,0,0,0,.55,1.37,2.17,2.17,0,0,0,1.75.71h.49v.55h-11v-.55h.49a4.82,4.82,0,0,0,2.69-.87,6.38,6.38,0,0,0,2.13-2.57l12.36-29.44q2-4.43,2-5.63h.49l14.66,35.07A5.92,5.92,0,0,0-3334-544,4.85,4.85,0,0,0-3331.23-543.14ZM-3407.91-570a6.28,6.28,0,0,1-1.7-4,6.17,6.17,0,0,1,.93-3.45,7,7,0,0,1,3-2.46,10.38,10.38,0,0,1,4.7-1h22.43a23.26,23.26,0,0,0,3.72-.33,15.38,15.38,0,0,0,2.9-.65V-575l-.55-.06V-576a3.06,3.06,0,0,0-.93-2.24,3.15,3.15,0,0,0-2.18-1H-3386v32.77a3.32,3.32,0,0,0,1.75,2.95,3.58,3.58,0,0,0,1.75.44h.71v.55h-12v-.55h.72a3.28,3.28,0,0,0,2.4-1,3.32,3.32,0,0,0,1.1-2.36V-579.3H-3401c-2.91,0-5,.93-6.34,2.79a5,5,0,0,0-1,3,7.1,7.1,0,0,0,.87,3.23Z" transform="translate(3409.61 584.22)"/></svg>