<?xml version="1.0" encoding="utf-8"?>
<!-- Generator: Adobe Illustrator 26.5.1, SVG Export Plug-In . SVG Version: 6.00 Build 0)  -->
<svg version="1.1" id="_圖層_2" xmlns="http://www.w3.org/2000/svg" xmlns:xlink="http://www.w3.org/1999/xlink" x="0px" y="0px"
	 viewBox="0 0 267.6 42" style="enable-background:new 0 0 267.6 42;" xml:space="preserve">
<style type="text/css">
	.st0{enable-background:new    ;}
	.st1{clip-path:url(#SVGID_00000132791421142133365350000001461345682365864382_);}
	.st2{clip-path:url(#SVGID_00000167361615990132126340000009368661748617167013_);}
	.st3{clip-path:url(#SVGID_00000009575499730736500450000007067071864893282461_);}
	.st4{clip-path:url(#SVGID_00000044899179801124026910000000138224100936562061_);}
	.st5{fill:#AC7B42;}
	.st6{fill:#B28146;}
</style>
<g id="logo" class="st0">
	<g>
		<defs>
			<path id="SVGID_1_" d="M32.7,23.1c0,0.4,0.3,0.8,0.8,0.8s0.8-0.3,0.8-0.8s-0.3-0.8-0.8-0.8S32.7,22.6,32.7,23.1"/>
		</defs>
		
			<linearGradient id="SVGID_00000168118070942549331570000015661022885525908927_" gradientUnits="userSpaceOnUse" x1="33.505" y1="0.3548" x2="33.505" y2="41.1162">
			<stop  offset="0" style="stop-color:#C59C60"/>
			<stop  offset="0.5112" style="stop-color:#986536"/>
			<stop  offset="0.9703" style="stop-color:#C69E62"/>
		</linearGradient>
		<use xlink:href="#SVGID_1_"  style="overflow:visible;fill:url(#SVGID_00000168118070942549331570000015661022885525908927_);"/>
		<clipPath id="SVGID_00000042000078670177285310000012813137795970873788_">
			<use xlink:href="#SVGID_1_"  style="overflow:visible;"/>
		</clipPath>
		<g style="clip-path:url(#SVGID_00000042000078670177285310000012813137795970873788_);">
			<g>
				<defs>
					<rect id="SVGID_00000176041890332063203500000001038013236263630239_" x="32.7" y="22.3" width="1.5" height="1.5"/>
				</defs>
				
					<linearGradient id="SVGID_00000135686114093419450670000012182745579080802197_" gradientUnits="userSpaceOnUse" x1="33.505" y1="0.3548" x2="33.505" y2="41.1162">
					<stop  offset="0" style="stop-color:#C59C60"/>
					<stop  offset="0.5112" style="stop-color:#986536"/>
					<stop  offset="0.9703" style="stop-color:#C69E62"/>
				</linearGradient>
				
					<use xlink:href="#SVGID_00000176041890332063203500000001038013236263630239_"  style="overflow:visible;fill:url(#SVGID_00000135686114093419450670000012182745579080802197_);"/>
				<clipPath id="SVGID_00000059297330615395616130000018275500790789909126_">
					<use xlink:href="#SVGID_00000176041890332063203500000001038013236263630239_"  style="overflow:visible;"/>
				</clipPath>
				<g style="clip-path:url(#SVGID_00000059297330615395616130000018275500790789909126_);">
					
						<image style="overflow:visible;enable-background:new    ;" width="5" height="3" xlink:href="C484FD6A.png"  transform="matrix(0.384 0 0 0.384 32.56 22.464)">
					</image>
				</g>
			</g>
		</g>
	</g>
	<g>
		<defs>
			<path id="SVGID_00000091711757996786402860000016335406953946170018_" d="M21.4,33H28v6.7c-2.1,0.8-4.3,1.2-6.6,1.2V33L21.4,33
				L21.4,33z M13.7,39.6V33h6.9V41C18.2,40.9,15.8,40.4,13.7,39.6 M12.8,11c0-0.3,0.2-0.6,0.6-0.6s0.6,0.2,0.6,0.6s-0.3,0.6-0.6,0.6
				S12.8,11.4,12.8,11 M15.9,30.9c-0.1-0.2-0.1-0.5-0.1-0.7V11.9c0-1-0.6-1.9-1.4-2.4c0.1,0,0.2,0,0.4,0c1.2,0,2.3,0.7,2.7,1.6
				c0,0.1,0.1,0.2,0.1,0.3v18.8c0,1,0.5,1.9,1.3,2.4c-0.1,0-0.3,0-0.4,0C17.2,32.6,16.2,31.9,15.9,30.9 M23.5,31.1
				c-0.1-0.3-0.2-0.6-0.2-1V11.9c0-1-0.5-1.9-1.4-2.4c0.1,0,0.1,0,0.2,0c1.1,0,2,0.6,2.5,1.5c0.1,0.3,0.2,0.7,0.2,1v18.3
				c0,1,0.5,1.9,1.4,2.4c-0.1,0-0.1,0-0.2,0C24.9,32.6,24,32,23.5,31.1 M1,21C1,10,10,1,21,1s20,9,20,20c0,8.2-5,15.3-12.2,18.4V33
				H33c0.1,0,0.2,0,0.4,0c0.8,0,1.6-0.3,2.1-0.9c0.6-0.5,0.9-1.3,0.9-2.1c0-1-0.5-1.8-1.3-2.4c-0.4-0.3-0.9-0.5-1.4-0.5
				c-0.1,0-0.1,0-0.2,0h-0.1c-0.4,0.1-0.6,0.4-0.6,0.8c0,0.4,0.3,0.8,0.8,0.8s0.8-0.3,0.8-0.8c0-0.1,0-0.1,0-0.2
				c1,0.4,1.7,1.3,1.7,2.3c0,1.4-1.2,2.5-2.7,2.5c-1.2,0-2.2-0.8-2.6-1.8c-0.1-0.2-0.1-0.5-0.1-0.7V11.9c0-1.6-1.3-2.9-2.9-2.9H7.2
				c1.4,0,2.6,1,2.8,2.4v18.8c0,1.6,1.3,2.9,2.9,2.9v6.2C5.9,36.1,1,29.1,1,21 M0,21c0,11.6,9.4,21,21,21s21-9.4,21-21S32.6,0,21,0
				S0,9.4,0,21"/>
		</defs>
		
			<linearGradient id="SVGID_00000166651107581701175530000000191515570889529535_" gradientUnits="userSpaceOnUse" x1="21" y1="0.3548" x2="21" y2="41.1162">
			<stop  offset="0" style="stop-color:#C59C60"/>
			<stop  offset="0.5112" style="stop-color:#986536"/>
			<stop  offset="0.9703" style="stop-color:#C69E62"/>
		</linearGradient>
		
			<use xlink:href="#SVGID_00000091711757996786402860000016335406953946170018_"  style="overflow:visible;fill:url(#SVGID_00000166651107581701175530000000191515570889529535_);"/>
		<clipPath id="SVGID_00000144336845851517413180000017092740437848532414_">
			<use xlink:href="#SVGID_00000091711757996786402860000016335406953946170018_"  style="overflow:visible;"/>
		</clipPath>
		<g style="clip-path:url(#SVGID_00000144336845851517413180000017092740437848532414_);">
			<g>
				<defs>
					<rect id="SVGID_00000055682859328664905540000010689997544028793274_" width="42" height="42"/>
				</defs>
				
					<linearGradient id="SVGID_00000087402522851430438550000001630586892697092011_" gradientUnits="userSpaceOnUse" x1="21" y1="0.3548" x2="21" y2="41.1162">
					<stop  offset="0" style="stop-color:#C59C60"/>
					<stop  offset="0.5112" style="stop-color:#986536"/>
					<stop  offset="0.9703" style="stop-color:#C69E62"/>
				</linearGradient>
				
					<use xlink:href="#SVGID_00000055682859328664905540000010689997544028793274_"  style="overflow:visible;fill:url(#SVGID_00000087402522851430438550000001630586892697092011_);"/>
				<clipPath id="SVGID_00000026152773153799689820000014364165925758539693_">
					<use xlink:href="#SVGID_00000055682859328664905540000010689997544028793274_"  style="overflow:visible;"/>
				</clipPath>
				<g style="clip-path:url(#SVGID_00000026152773153799689820000014364165925758539693_);">
				</g>
			</g>
		</g>
	</g>
</g>
<g>
	<path class="st5" d="M73.7,7.1v1.2h-7.9v0.9h6.3v1.1H57.8V9.2H64V8.3h-7.7V7.1H64V6h1.9v1.1H73.7z M65.9,22.6h7.8v1.3H56.3v-1.3H64
		v-0.9h-5.7v-1.2H64v-0.8c-3.7,0.1-4.2,0.2-4.6,0.3c-0.1-0.3-0.3-0.9-0.4-1.3c0.3,0,0.7-0.1,1.1-0.3c0.3-0.1,1-0.4,1.7-0.8h-3.1
		v-1.1h12.7v1.1h-1.9c1,0.6,1.9,1.3,2.6,1.8l-1.1,0.9c-0.3-0.2-0.6-0.5-1-0.8l-3.9,0.1v0.8h6v1.2h-6C65.9,21.7,65.9,22.6,65.9,22.6z
		 M56.6,14.7h16.8v2.9h-1.8v-1.7H58.3v1.7h-1.7C56.6,17.6,56.6,14.7,56.6,14.7z M71.5,11.1V14H58.6v-2.9H71.5z M69.6,12h-9.3v1h9.3
		V12z M63.8,17.7c-0.6,0.4-1.2,0.7-1.8,1l6.3-0.1c-0.4-0.3-0.9-0.5-1.3-0.8l0.2-0.1C67.2,17.7,63.8,17.7,63.8,17.7z"/>
	<path class="st5" d="M80.1,14.9c-0.6-0.6-1.9-1.5-2.9-2.1l1-1.3c1,0.5,2.3,1.3,2.9,1.9C81.1,13.4,80.1,14.9,80.1,14.9z M77.6,23.2
		c0.7-1.5,1.7-4.1,2.5-6.3l1.5,1c-0.6,2.1-1.5,4.5-2.3,6.3C79.3,24.1,77.6,23.2,77.6,23.2z M80.4,9.7c-0.5-0.7-1.8-1.6-2.8-2.2
		l1.1-1.2c1,0.5,2.2,1.4,2.8,2C81.6,8.3,80.4,9.7,80.4,9.7z M82.8,13.5c-0.2,1-0.5,2-0.8,2.7c-0.2-0.2-0.6-0.4-0.9-0.6
		c0.4-0.7,0.6-1.5,0.7-2.4C81.8,13.3,82.8,13.5,82.8,13.5z M85.3,12.7c-0.1-0.2-0.1-0.4-0.2-0.6c-2.6,0.4-3.1,0.5-3.4,0.6
		c-0.1-0.2-0.3-0.6-0.4-0.8c0.3-0.1,0.6-0.3,0.9-0.7c0.2-0.2,0.7-0.7,1.1-1.4c-1.2,0.1-1.5,0.2-1.7,0.3c-0.1-0.2-0.2-0.6-0.4-0.8
		c0.2,0,0.4-0.2,0.6-0.5c0.2-0.3,0.9-1.4,1.2-2.5l1.1,0.4c-0.3,0.8-0.8,1.6-1.3,2.3L84,8.7c0.2-0.3,0.4-0.6,0.5-0.9l1,0.5
		c-0.6,1.1-1.5,2.2-2.3,3.1l1.5-0.2c-0.1-0.2-0.2-0.4-0.3-0.6l0.8-0.3c0.4,0.6,0.8,1.5,0.9,2L85.3,12.7L85.3,12.7L85.3,12.7z
		 M94.8,20.2c0,0,0,0.5-0.1,0.7c-0.3,1.7-0.7,2.5-1.3,2.9c-0.5,0.3-0.9,0.4-1.7,0.5c-0.6,0-1.8,0-3.1-0.1c0-0.4-0.2-1-0.5-1.4
		c1.2,0.1,2.5,0.1,3,0.1c0.4,0,0.6,0,0.9-0.1c0.3-0.2,0.5-0.6,0.7-1.4H82.5c0.3-0.9,0.6-2.1,0.9-3.2h8.8v-0.9h-9.4v-1.1h11.2v3.1h-9
		l-0.2,0.8H94.8L94.8,20.2z M83.5,15.8c0-0.6-0.2-1.6-0.4-2.4l0.9-0.2c0.2,0.7,0.4,1.7,0.5,2.3C84.4,15.5,83.5,15.8,83.5,15.8z
		 M85.2,15.4c-0.1-0.6-0.3-1.5-0.6-2.2l0.8-0.3c0.3,0.7,0.6,1.5,0.7,2.1L85.2,15.4z M90.7,9h-4.8V8h2c-0.1-0.4-0.5-1.1-0.7-1.5
		l1.2-0.3c0.3,0.5,0.7,1.2,0.8,1.6L88.3,8h2.3V9z M86.4,12.7h3.8v2.9h-3.8C86.4,15.7,86.4,12.7,86.4,12.7z M90.2,10.6h-3.7V9.7h3.7
		V10.6z M86.5,11.1h3.7v0.9h-3.7V11.1z M87.6,14.8H89v-1.1h-1.4V14.8z M92.1,13.4c-0.2,1-0.5,2-0.8,2.7c-0.2-0.2-0.6-0.5-0.9-0.6
		c0.4-0.7,0.6-1.5,0.7-2.3C91.1,13.2,92.1,13.4,92.1,13.4z M94.7,12.7c-0.1-0.2-0.1-0.4-0.2-0.7c-2.6,0.4-3.1,0.5-3.4,0.6
		c-0.1-0.2-0.3-0.6-0.4-0.9c0.3,0,0.6-0.3,0.9-0.7c0.2-0.2,0.6-0.7,1.1-1.4C91.5,9.8,91.2,9.9,91,10c-0.1-0.2-0.2-0.6-0.4-0.9
		c0.2,0,0.4-0.2,0.6-0.5c0.2-0.3,0.9-1.4,1.2-2.5l1.1,0.4c-0.3,0.8-0.8,1.6-1.3,2.3l1.2-0.1c0.2-0.3,0.3-0.6,0.5-0.9l1.1,0.5
		c-0.6,1.1-1.4,2.2-2.3,3.1l1.5-0.2c-0.1-0.2-0.2-0.4-0.3-0.6l0.8-0.3c0.4,0.7,0.8,1.5,1,2.1C95.5,12.4,94.7,12.7,94.7,12.7z
		 M92.8,16c0-0.7-0.2-1.7-0.4-2.6l0.9-0.2c0.2,0.8,0.5,1.9,0.5,2.5L92.8,16z M94.7,12.9c0.4,0.8,0.7,1.8,0.8,2.5l-0.9,0.4
		c-0.1-0.7-0.4-1.8-0.8-2.6L94.7,12.9z"/>
	<path class="st5" d="M115.5,16.4c0.1,0,0.2,0,0.3-0.1c0.1,0,0.1-0.2,0.2-0.4c0-0.2,0.1-0.8,0.1-1.4c0.3,0.2,0.7,0.4,1.1,0.5
		c0,0.7-0.1,1.5-0.2,1.8c-0.1,0.3-0.3,0.5-0.5,0.6c-0.2,0.1-0.5,0.2-0.8,0.2h-0.8c-0.4,0-0.8-0.1-1-0.4c-0.3-0.3-0.4-0.6-0.4-1.7
		v-3.4H112c0,0.6-0.1,1.2-0.3,1.8c0.6,0.4,1.2,0.8,1.6,1.1l-0.9,1.2c-0.3-0.3-0.7-0.6-1.2-0.9c-0.5,1-1.3,1.9-2.6,2.7
		c-0.2-0.2-0.4-0.4-0.7-0.7c-3.1,0.2-6.2,0.5-8.4,0.6l-0.1-1.1c1,0,2.2-0.1,3.6-0.2v-0.8h-2.7v-1h2.7v-1h1.4
		c-0.1-0.2-0.1-0.5-0.1-0.8v-0.3h-1.5c-0.3,1.1-1.1,1.7-3,2.1c-0.1-0.3-0.4-0.7-0.7-0.9c1.5-0.2,2.1-0.6,2.4-1.2h-2.1v-1h3.5V11
		h-2.6v-1h2.6V9.4h1.6V10h2.5v1h-2.5v0.7h3.5v1h-2.5V13c0,0.3,0,0.5,0.3,0.5h1c0.2,0,0.6,0,0.9-0.1c0,0.3,0.1,0.6,0.1,0.9
		c-0.2,0.1-0.6,0.1-0.9,0.1h-1.3c-0.5,0-0.8-0.1-1-0.3v0.8h2.8v1h-2.8v0.8l3.4-0.2v0.4c0.9-0.7,1.6-1.4,1.9-2.2
		c-0.6-0.3-1.2-0.6-1.8-0.9l0.8-1c0.5,0.2,1,0.4,1.4,0.7c0.1-0.4,0.2-0.7,0.2-1.1h-2.1v-1.4h2.1V9.5h1.4v1.3h2.9v4.8
		c0,0.4,0,0.6,0.1,0.6c0,0.1,0.1,0.1,0.2,0.1L115.5,16.4L115.5,16.4z M99.1,20.2h17.7v1.1h-4.6c1.5,0.7,3,1.7,3.9,2.4l-1.3,0.9
		c-0.3-0.3-0.8-0.6-1.3-1c-10.8,0.5-12,0.5-12.8,0.7c-0.1-0.3-0.4-0.9-0.5-1.3c0.4-0.1,0.8-0.2,1.4-0.5c0.4-0.2,1.3-0.6,2.3-1.3
		h-4.8C99.1,21.3,99.1,20.2,99.1,20.2z M103.8,8.6h-4.5V7.2h4.5V6h1.8v1.2h2.2v1.3h-2.2v0.8h-1.8V8.6z M114.5,18.2v1.1h-12.9v-1.1
		H114.5z M111.8,22.5c-0.5-0.3-1-0.5-1.4-0.7l0.9-0.5h-4.9c-0.8,0.5-1.7,1-2.5,1.5C103.9,22.8,111.8,22.5,111.8,22.5z M110.4,8.6h-2
		V7.2h2V6h1.8v1.2h4.6v1.3h-4.6v0.8h-1.8V8.6z"/>
	<path class="st5" d="M138.7,13.9H137V22c0,1-0.2,1.5-0.8,1.8c-0.6,0.3-1.5,0.3-2.9,0.3c-0.1-0.5-0.3-1.3-0.5-1.8c0.9,0,1.8,0,2.1,0
		c0.3,0,0.4-0.1,0.4-0.3v-8.1h-2v-1.4h-3.1v11.8h-1.6V12.5h-2.8v-1.6c-0.4,0.9-0.9,1.7-1.4,2.6v10.9h-1.7v-8.5
		c-0.5,0.6-1,1.1-1.5,1.5c-0.2-0.4-0.7-1.3-1-1.7c1.6-1.4,3.2-3.5,4.1-5.6l1.7,0.5l-0.1,0.1h2.7V6.1h1.6v4.6h3.2v1.5h5.5L138.7,13.9
		L138.7,13.9L138.7,13.9z M125.4,6.6c-1,1.7-2.6,3.5-4.1,4.7c-0.2-0.4-0.7-1-1-1.4c1.3-1,2.7-2.6,3.4-3.9
		C123.7,6,125.4,6.6,125.4,6.6z M127.6,13.6c0,3.8-0.2,6.4-1.8,7.9c-0.2-0.3-0.6-0.9-0.9-1.1c1.2-1.3,1.3-3.4,1.4-6.8
		C126.2,13.6,127.6,13.6,127.6,13.6z M132.3,10.3c-0.3-0.7-1-1.8-1.7-2.6l1.2-0.6c0.7,0.8,1.4,1.8,1.7,2.5L132.3,10.3L132.3,10.3
		L132.3,10.3z M133.2,19.6c0.2,0,0.5,0,0.6-0.1c0,0.4,0.1,1,0.1,1.3c-0.2,0.1-0.5,0.1-0.8,0.1h-0.6c-1.3,0-1.6-0.5-1.6-2v-5.3h1.4
		V19c0,0.5,0,0.7,0.2,0.7L133.2,19.6L133.2,19.6z M138.4,9.2h-4.7V7.6h4.7V9.2z"/>
	<path class="st5" d="M158.9,11.4c-0.4,3.1-1.2,5.6-2.3,7.7c1,1.6,2.2,2.9,3.7,3.7c-0.4,0.4-1,1.1-1.3,1.6c-1.4-0.9-2.6-2.1-3.5-3.5
		c-1.1,1.4-2.6,2.6-4.4,3.6c-0.2-0.4-0.8-1.3-1.1-1.7c2-0.9,3.5-2.1,4.5-3.7c-0.7-1.5-1.2-3.1-1.6-4.9c-0.4,0.7-0.8,1.3-1.2,1.9
		c-0.2-0.3-0.7-0.7-1.2-1.1c-0.8,0.9-1.9,1.9-2.9,2.6v0.7c1.2-0.1,2.5-0.3,3.7-0.4l0,1.6l-3.7,0.5v2.6c0,0.8-0.2,1.3-0.8,1.5
		c-0.6,0.3-1.5,0.3-2.8,0.3c-0.1-0.5-0.3-1.1-0.6-1.6c0.9,0,1.8,0,2,0c0.3,0,0.3-0.1,0.3-0.3v-2.4l-3.9,0.5l-0.2-1.7
		c1.1-0.1,2.5-0.3,4.1-0.4v-1.3c0.7-0.4,1.4-1,2-1.6h-2.7c-0.7,0.6-1.5,1.1-2.3,1.5c-0.3-0.4-0.9-1.1-1.3-1.4
		c1.5-0.7,2.9-1.7,4.1-2.9h-3.9v-1.6h3.3V9.5h-2.5V8h2.5V6h1.7v2h1.9v1.2c0.5-0.8,1-1.7,1.4-2.7l1.7,0.5c-0.6,1.5-1.4,3-2.4,4.2h2
		v1.6c1-1.9,1.6-4.3,2-6.8l1.9,0.3c-0.2,1.1-0.4,2.3-0.8,3.4h5.6v1.7C160.2,11.4,158.9,11.4,158.9,11.4z M146.8,11.2h0.5
		c0.5-0.5,0.9-1.1,1.2-1.7h-1.7L146.8,11.2L146.8,11.2L146.8,11.2z M150.4,14.6c0.4-0.5,0.7-1.1,1-1.7h-3.2
		c-0.4,0.4-0.8,0.9-1.2,1.3h2.3l0.3-0.1L150.4,14.6L150.4,14.6L150.4,14.6z M154.1,11.4c0.3,2,0.8,3.9,1.5,5.6
		c0.7-1.6,1.1-3.4,1.4-5.6C157,11.4,154.1,11.4,154.1,11.4z"/>
	<path class="st5" d="M181.2,9.5h-4.8c1.5,1.1,3.1,2.5,4,3.5l-1.6,1h0.5v8.3c0,1.1-0.3,1.5-1.1,1.7c-0.8,0.2-2.1,0.2-3.9,0.2
		c-0.1-0.5-0.3-1.1-0.5-1.6c1.2,0.1,2.6,0.1,3,0c0.4,0,0.5-0.1,0.5-0.4v-2.1c-3,0.7-6.2,1.3-8.6,1.7l-0.6-1.7
		c2.2-0.3,5.7-0.9,9.1-1.4v-3.4h-9.4v1.8c0,2.2-0.3,5.2-2.2,7.2c-0.3-0.4-1.1-0.9-1.5-1.1c1.7-1.8,1.9-4.2,1.9-6.1V14h12.7
		c-0.3-0.4-0.7-0.8-1.2-1.3c-10,0.5-11.1,0.5-11.8,0.7c-0.1-0.4-0.3-1.3-0.6-1.7c0.5-0.1,1-0.5,1.7-1c0.3-0.2,0.8-0.6,1.4-1.2h-4.6
		V7.8h6.3c0.6-0.6,1.2-1.4,1.8-2.1l1.9,0.7c-0.4,0.5-0.8,0.9-1.2,1.3h8.8L181.2,9.5L181.2,9.5L181.2,9.5z M176,11.2
		c-0.6-0.4-1.1-0.9-1.6-1.3l0.8-0.5h-4.4c-0.8,0.7-1.6,1.4-2.4,2L176,11.2L176,11.2L176,11.2z M169.1,16.1c2.3,0.3,5.4,1,7,1.7
		l-0.6,1.3c-1.6-0.7-4.6-1.5-7-1.9L169.1,16.1z"/>
	<path class="st5" d="M202.7,8v1.6h-17.4V8h7.9c-0.2-0.5-0.4-1.1-0.6-1.6l1.9-0.4c0.3,0.6,0.6,1.4,0.8,2.1H202.7z M202.1,22.5
		c0,0.9-0.2,1.2-0.8,1.5c-0.6,0.2-1.5,0.2-2.9,0.2c-0.1-0.4-0.4-1-0.6-1.4c0.8,0,1.8,0,2.1,0c0.3,0,0.4-0.1,0.4-0.3v-5.4h-12.6v7.2
		h-1.8v-8.8h16.3L202.1,22.5L202.1,22.5L202.1,22.5z M200.1,10.5v4.1h-12v-4.1H200.1z M191.4,22.3v0.9h-1.7v-5.1h8.5v4.2H191.4z
		 M198.1,11.8h-8.2v1.5h8.2V11.8z M191.4,19.5V21h5.1v-1.5H191.4z"/>
	<path class="st5" d="M212.2,17.8c-0.3-0.7-0.8-1.9-1.3-2.9v9.4h-1.7v-9c-0.6,2.1-1.4,4.2-2.2,5.5c-0.2-0.5-0.6-1.4-0.9-1.8
		c1.2-1.6,2.3-4.6,2.8-7.2h-2.2v-1.7h2.5V6h1.7v4.1h2.1v1.7h-2.1v0.7c0.5,0.7,2.1,3.3,2.4,3.9L212.2,17.8L212.2,17.8L212.2,17.8z
		 M222.3,14.8c-0.5,1.8-1.3,3.4-2.3,4.8c1.3,1.3,3,2.3,4.9,2.9c-0.4,0.4-1,1.1-1.3,1.7c-1.9-0.7-3.5-1.7-4.9-3.1
		c-1.3,1.3-3,2.4-4.9,3.3c-0.2-0.4-0.8-1.1-1.2-1.4c2-0.8,3.6-1.9,4.9-3.2c-1-1.4-1.8-2.9-2.4-4.6c-0.3,0.3-0.7,0.6-1,0.9
		c-0.3-0.4-0.9-0.9-1.3-1.1c1.3-1,2.5-2.7,3.3-4l1.6,0.8c-0.6,1.1-1.5,2.2-2.4,3.2l1.3-0.3c0.5,1.4,1.2,2.7,2.1,3.8
		c0.8-1.1,1.4-2.4,1.8-3.9L222.3,14.8L222.3,14.8L222.3,14.8z M224.5,10.6h-10.9V8.8h4.8c-0.3-0.7-0.9-1.7-1.4-2.4l1.6-0.6
		c0.7,0.7,1.3,1.7,1.6,2.4l-1.3,0.6h5.6C224.5,8.9,224.5,10.6,224.5,10.6z M221,10.7c1.3,1.2,2.8,2.9,3.5,4l-1.4,1.2
		c-0.6-1.2-2.1-2.9-3.4-4.2L221,10.7L221,10.7L221,10.7z"/>
	<path class="st5" d="M233.9,8.5v15.9h-1.6v-3.6c-1.5,0.3-3,0.5-4.2,0.8l-0.4-1.7l1.1-0.2V8.5H228V6.8h6.6v1.7H233.9L233.9,8.5z
		 M232.4,8.5h-2V11h2V8.5z M232.4,12.5h-2V15h2V12.5z M232.4,19.2v-2.6h-2v2.9C230.4,19.5,232.4,19.2,232.4,19.2z M239.3,12.1
		c0.4,1,0.8,2.5,1,3.3l-1.2,0.4c-0.1-0.3-0.1-0.6-0.2-1c-3.4,0.4-3.9,0.5-4.2,0.7c-0.1-0.4-0.2-1.2-0.4-1.6c0.3-0.1,0.7-0.4,1.2-1
		c0.2-0.2,0.6-0.8,1.1-1.5c-1.2,0.1-1.5,0.2-1.7,0.3c-0.1-0.4-0.3-1.2-0.4-1.7c0.2-0.1,0.5-0.3,0.8-0.7c0.3-0.4,1.2-1.8,1.8-3.3
		l1.4,0.6c-0.6,1.3-1.4,2.6-2.2,3.5l1.3,0c0.4-0.6,0.7-1.2,1-1.7l1.3,0.7c-1,1.7-2.2,3.4-3.4,4.7l2.2-0.2c-0.1-0.4-0.2-0.8-0.4-1.2
		C238.2,12.4,239.3,12.1,239.3,12.1z M239.7,15.9v3c0,2-0.6,4.2-3.5,5.6c-0.2-0.4-0.7-1-1-1.3c1.7-0.8,2.5-1.8,2.8-2.8h-2.7v-4.6
		h1.5v3h1.4v-3L239.7,15.9L239.7,15.9z M245.2,15.7c-0.1-0.3-0.2-0.7-0.3-1.1c-3.4,0.5-3.9,0.7-4.2,0.9c-0.1-0.4-0.3-1.2-0.4-1.6
		c0.3-0.1,0.7-0.4,1.1-0.9c0.2-0.2,0.7-0.8,1.1-1.6c-1.4,0.1-1.8,0.2-2,0.4c-0.1-0.4-0.3-1.2-0.4-1.6c0.3,0,0.5-0.3,0.8-0.6
		c0.3-0.4,1.2-1.8,1.8-3.2l1.2,0.6c-0.6,1.2-1.3,2.4-2,3.3l1.3-0.1c0.3-0.5,0.6-1.1,0.8-1.6l1.2,0.7c-0.9,1.7-1.9,3.4-2.9,4.6
		l2.2-0.3c-0.2-0.4-0.3-0.8-0.5-1.2l1.1-0.3c0.5,1,1,2.5,1.2,3.3C246.3,15.2,245.2,15.6,245.2,15.7z M243.8,16h1.5v5.1h-1.5v-0.7
		h-1.4v4h-1.6v-8.5h1.6v3h1.4C243.8,18.8,243.8,16,243.8,16z"/>
	<path class="st5" d="M267.6,22.2v1.6h-18.2v-1.6h2.3v-4.7h13.7v4.7H267.6z M252.2,15.9h-1.7v-9h6.5v8h-4.8
		C252.2,14.9,252.2,15.9,252.2,15.9z M252.2,8.4v1.8h3.1V8.4H252.2z M255.3,13.4v-1.8h-3.1v1.8H255.3z M253.4,22.2h2.2V19h-2.2V22.2
		z M260.1,13.8c-0.3,1.3-1,2.6-2.2,3.5c-0.3-0.4-0.9-1-1.3-1.2c2-1.5,2.2-3.6,2.2-5.4V6.6h7.7v8.5c0,0.9-0.2,1.3-0.8,1.6
		C265,17,264,17,262.7,17c-0.1-0.5-0.4-1.1-0.7-1.6c1,0,1.9,0,2.1,0c0.3,0,0.4-0.1,0.4-0.3v-1.4L260.1,13.8L260.1,13.8z M257.4,19
		v3.2h2.3V19H257.4z M264.6,12.4v-1.5h-4.1c0,0.5,0,1-0.1,1.5H264.6z M260.4,8.1v1.5h4.1V8.1H260.4z M261.3,19v3.2h2.3V19H261.3z"/>
</g>
<g class="st0">
	<path class="st6" d="M57.7,31.6h-2v-0.7h4.8v0.7h-2v5.1h-0.8V31.6z"/>
</g>
<g class="st0">
	<path class="st6" d="M64.5,34v2.6h-0.8V36c-0.3,0.4-0.8,0.6-1.4,0.6c-1,0-1.6-0.5-1.6-1.3c0-0.7,0.5-1.3,1.8-1.3h1.3v-0.2
		c0-0.7-0.4-1.1-1.2-1.1c-0.5,0-1,0.2-1.4,0.5l-0.3-0.6c0.5-0.4,1.1-0.6,1.8-0.6C63.8,32.2,64.5,32.8,64.5,34z M63.7,35.3v-0.6h-1.2
		c-0.8,0-1,0.3-1,0.7c0,0.4,0.4,0.7,1,0.7C63.1,36.1,63.5,35.8,63.7,35.3z"/>
	<path class="st6" d="M65.9,30.9c0-0.3,0.2-0.5,0.5-0.5s0.5,0.2,0.5,0.5c0,0.3-0.2,0.5-0.5,0.5C66.1,31.4,65.9,31.2,65.9,30.9z
		 M66,32.2h0.8v4.4H66V32.2z"/>
</g>
<g class="st0">
	<path class="st6" d="M74.9,32.2l-1.6,4.4h-0.8l-1.3-3.3L70,36.6h-0.8l-1.6-4.4h0.8l1.3,3.5l1.3-3.5h0.7l1.3,3.5l1.3-3.5H74.9z"/>
</g>
<g class="st0">
	<path class="st6" d="M79,34v2.6h-0.8V36c-0.3,0.4-0.8,0.6-1.4,0.6c-1,0-1.6-0.5-1.6-1.3c0-0.7,0.5-1.3,1.8-1.3h1.3v-0.2
		c0-0.7-0.4-1.1-1.2-1.1c-0.5,0-1,0.2-1.4,0.5l-0.3-0.6c0.5-0.4,1.1-0.6,1.8-0.6C78.4,32.2,79,32.8,79,34z M78.2,35.3v-0.6H77
		c-0.8,0-1,0.3-1,0.7c0,0.4,0.4,0.7,1,0.7C77.6,36.1,78.1,35.8,78.2,35.3z"/>
	<path class="st6" d="M84.7,34.1v2.5h-0.8v-2.4c0-0.9-0.4-1.3-1.2-1.3c-0.8,0-1.4,0.5-1.4,1.5v2.3h-0.8v-4.4h0.8v0.7
		c0.3-0.4,0.9-0.7,1.6-0.7C83.9,32.2,84.7,32.8,84.7,34.1z"/>
	<path class="st6" d="M92.2,35.2h-3.1l-0.6,1.4h-0.9l2.6-5.8H91l2.6,5.8h-0.9L92.2,35.2z M91.9,34.5l-1.2-2.8l-1.2,2.8H91.9z"/>
</g>
<g class="st0">
	<path class="st6" d="M96.8,32.2V33c-0.1,0-0.1,0-0.2,0c-0.9,0-1.4,0.5-1.4,1.5v2.2h-0.8v-4.4h0.8V33C95.4,32.5,96,32.2,96.8,32.2z"
		/>
</g>
<g class="st0">
	<path class="st6" d="M100.4,36.4c-0.2,0.2-0.6,0.3-1,0.3c-0.9,0-1.4-0.5-1.4-1.4v-2.4h-0.7v-0.7H98v-1h0.8v1h1.3v0.7h-1.3v2.4
		c0,0.5,0.2,0.7,0.7,0.7c0.2,0,0.5-0.1,0.6-0.2L100.4,36.4z"/>
	<path class="st6" d="M100.8,36.2l0.3-0.6c0.4,0.3,1,0.5,1.5,0.5c0.7,0,1-0.2,1-0.6c0-1-2.8-0.1-2.8-1.9c0-0.8,0.7-1.3,1.8-1.3
		c0.6,0,1.2,0.1,1.6,0.4l-0.3,0.6c-0.4-0.3-0.8-0.3-1.3-0.3c-0.7,0-1,0.3-1,0.6c0,1,2.8,0.2,2.8,1.9c0,0.8-0.7,1.3-1.9,1.3
		C101.9,36.7,101.1,36.4,100.8,36.2z"/>
</g>
<g class="st0">
	<path class="st6" d="M112,35.9v0.7h-4.2v-5.8h4.1v0.7h-3.3v1.8h2.9V34h-2.9v1.9H112z"/>
</g>
<g class="st0">
	<path class="st6" d="M117.3,30.5v6.1h-0.8v-0.7c-0.4,0.5-0.9,0.7-1.6,0.7c-1.3,0-2.2-0.9-2.2-2.2s0.9-2.2,2.2-2.2
		c0.6,0,1.2,0.2,1.5,0.7v-2.4H117.3z M116.5,34.4c0-0.9-0.6-1.5-1.5-1.5c-0.8,0-1.5,0.6-1.5,1.5s0.6,1.5,1.5,1.5
		C115.9,36,116.5,35.4,116.5,34.4z"/>
	<path class="st6" d="M122.9,32.2v4.4h-0.8V36c-0.3,0.5-0.9,0.7-1.5,0.7c-1.1,0-1.9-0.6-1.9-1.9v-2.5h0.8v2.4c0,0.9,0.4,1.3,1.2,1.3
		c0.8,0,1.4-0.5,1.4-1.5v-2.3H122.9z"/>
	<path class="st6" d="M124,34.4c0-1.3,1-2.2,2.3-2.2c0.8,0,1.4,0.3,1.8,0.9l-0.6,0.4c-0.3-0.4-0.7-0.6-1.2-0.6
		c-0.9,0-1.5,0.6-1.5,1.5c0,0.9,0.6,1.5,1.5,1.5c0.5,0,0.9-0.2,1.2-0.6l0.6,0.4c-0.3,0.6-1,0.9-1.8,0.9C125,36.7,124,35.7,124,34.4z
		"/>
	<path class="st6" d="M132.6,34v2.6h-0.8V36c-0.3,0.4-0.8,0.6-1.4,0.6c-1,0-1.6-0.5-1.6-1.3c0-0.7,0.5-1.3,1.8-1.3h1.3v-0.2
		c0-0.7-0.4-1.1-1.2-1.1c-0.5,0-1,0.2-1.4,0.5l-0.3-0.6c0.5-0.4,1.1-0.6,1.8-0.6C131.9,32.2,132.6,32.8,132.6,34z M131.8,35.3v-0.6
		h-1.2c-0.8,0-1,0.3-1,0.7c0,0.4,0.4,0.7,1,0.7C131.1,36.1,131.6,35.8,131.8,35.3z"/>
	<path class="st6" d="M136.5,36.4c-0.2,0.2-0.6,0.3-1,0.3c-0.9,0-1.4-0.5-1.4-1.4v-2.4h-0.7v-0.7h0.7v-1h0.8v1h1.3v0.7H135v2.4
		c0,0.5,0.2,0.7,0.7,0.7c0.2,0,0.5-0.1,0.6-0.2L136.5,36.4z"/>
	<path class="st6" d="M137.3,30.9c0-0.3,0.2-0.5,0.5-0.5c0.3,0,0.5,0.2,0.5,0.5c0,0.3-0.2,0.5-0.5,0.5
		C137.6,31.4,137.3,31.2,137.3,30.9z M137.5,32.2h0.8v4.4h-0.8V32.2z"/>
	<path class="st6" d="M139.4,34.4c0-1.3,1-2.2,2.3-2.2s2.3,0.9,2.3,2.2s-1,2.2-2.3,2.2S139.4,35.7,139.4,34.4z M143.1,34.4
		c0-0.9-0.6-1.5-1.5-1.5s-1.5,0.6-1.5,1.5s0.6,1.5,1.5,1.5S143.1,35.4,143.1,34.4z"/>
	<path class="st6" d="M149.2,34.1v2.5h-0.8v-2.4c0-0.9-0.4-1.3-1.2-1.3c-0.8,0-1.4,0.5-1.4,1.5v2.3H145v-4.4h0.8v0.7
		c0.3-0.4,0.9-0.7,1.6-0.7C148.4,32.2,149.2,32.8,149.2,34.1z"/>
	<path class="st6" d="M152.5,36l0.3-0.6c0.4,0.4,1.2,0.7,1.9,0.7c1,0,1.4-0.4,1.4-0.9c0-1.4-3.5-0.5-3.5-2.7c0-0.9,0.7-1.7,2.2-1.7
		c0.7,0,1.4,0.2,1.9,0.5l-0.3,0.7c-0.5-0.3-1.1-0.5-1.6-0.5c-1,0-1.4,0.4-1.4,0.9c0,1.4,3.5,0.5,3.5,2.6c0,0.9-0.7,1.6-2.2,1.6
		C153.8,36.7,152.9,36.4,152.5,36z"/>
	<path class="st6" d="M161.9,34.7h-3.6c0.1,0.8,0.7,1.3,1.6,1.3c0.5,0,0.9-0.2,1.3-0.5l0.4,0.5c-0.4,0.5-1,0.7-1.7,0.7
		c-1.4,0-2.4-0.9-2.4-2.2c0-1.3,0.9-2.2,2.2-2.2c1.3,0,2.2,0.9,2.2,2.3C162,34.5,161.9,34.6,161.9,34.7z M158.4,34.1h2.8
		c-0.1-0.7-0.6-1.3-1.4-1.3C159,32.9,158.5,33.4,158.4,34.1z"/>
	<path class="st6" d="M167.2,34.1v2.5h-0.8v-2.4c0-0.9-0.4-1.3-1.2-1.3c-0.8,0-1.4,0.5-1.4,1.5v2.3h-0.8v-4.4h0.8v0.7
		c0.3-0.4,0.9-0.7,1.6-0.7C166.5,32.2,167.2,32.8,167.2,34.1z"/>
	<path class="st6" d="M168.5,30.9c0-0.3,0.2-0.5,0.5-0.5c0.3,0,0.5,0.2,0.5,0.5c0,0.3-0.2,0.5-0.5,0.5
		C168.8,31.4,168.5,31.2,168.5,30.9z M168.7,32.2h0.8v4.4h-0.8V32.2z"/>
	<path class="st6" d="M170.6,34.4c0-1.3,1-2.2,2.3-2.2s2.3,0.9,2.3,2.2s-1,2.2-2.3,2.2S170.6,35.7,170.6,34.4z M174.3,34.4
		c0-0.9-0.6-1.5-1.5-1.5c-0.8,0-1.5,0.6-1.5,1.5s0.6,1.5,1.5,1.5C173.7,36,174.3,35.4,174.3,34.4z"/>
	<path class="st6" d="M178.6,32.2V33c-0.1,0-0.1,0-0.2,0c-0.9,0-1.4,0.5-1.4,1.5v2.2h-0.8v-4.4h0.8V33
		C177.3,32.5,177.8,32.2,178.6,32.2z"/>
	<path class="st6" d="M186.9,30.8v5.8h-0.8V34h-3.3v2.6H182v-5.8h0.8v2.5h3.3v-2.5H186.9z"/>
	<path class="st6" d="M188.4,30.9c0-0.3,0.2-0.5,0.5-0.5c0.3,0,0.5,0.2,0.5,0.5c0,0.3-0.2,0.5-0.5,0.5
		C188.6,31.4,188.4,31.2,188.4,30.9z M188.5,32.2h0.8v4.4h-0.8V32.2z"/>
	<path class="st6" d="M195,32.2V36c0,1.5-0.8,2.2-2.3,2.2c-0.8,0-1.6-0.2-2.1-0.7l0.4-0.6c0.4,0.3,1,0.6,1.7,0.6
		c1,0,1.5-0.5,1.5-1.5v-0.3c-0.4,0.5-0.9,0.7-1.6,0.7c-1.3,0-2.2-0.9-2.2-2.1c0-1.3,1-2.1,2.2-2.1c0.7,0,1.2,0.2,1.6,0.7v-0.7H195z
		 M194.3,34.3c0-0.9-0.6-1.4-1.5-1.4c-0.9,0-1.5,0.6-1.5,1.4c0,0.8,0.6,1.4,1.5,1.4C193.6,35.7,194.3,35.2,194.3,34.3z"/>
	<path class="st6" d="M200.7,34.1v2.5h-0.8v-2.4c0-0.9-0.4-1.3-1.2-1.3c-0.8,0-1.4,0.5-1.4,1.5v2.3h-0.8v-6.1h0.8v2.4
		c0.3-0.4,0.9-0.7,1.5-0.7C200,32.2,200.7,32.8,200.7,34.1z"/>
	<path class="st6" d="M204,36l0.3-0.6c0.4,0.4,1.2,0.7,1.9,0.7c1,0,1.4-0.4,1.4-0.9c0-1.4-3.5-0.5-3.5-2.7c0-0.9,0.7-1.7,2.2-1.7
		c0.7,0,1.4,0.2,1.9,0.5l-0.3,0.7c-0.5-0.3-1.1-0.5-1.6-0.5c-1,0-1.4,0.4-1.4,0.9c0,1.4,3.5,0.5,3.5,2.6c0,0.9-0.7,1.6-2.2,1.6
		C205.3,36.7,204.4,36.4,204,36z"/>
</g>
<g class="st0">
	<path class="st6" d="M209.1,34.4c0-1.3,1-2.2,2.3-2.2c0.8,0,1.4,0.3,1.8,0.9l-0.6,0.4c-0.3-0.4-0.7-0.6-1.2-0.6
		c-0.9,0-1.5,0.6-1.5,1.5c0,0.9,0.6,1.5,1.5,1.5c0.5,0,0.9-0.2,1.2-0.6l0.6,0.4c-0.3,0.6-1,0.9-1.8,0.9
		C210.1,36.7,209.1,35.7,209.1,34.4z"/>
</g>
<g class="st0">
	<path class="st6" d="M218.3,34.1v2.5h-0.8v-2.4c0-0.9-0.4-1.3-1.2-1.3c-0.8,0-1.4,0.5-1.4,1.5v2.3h-0.8v-6.1h0.8v2.4
		c0.3-0.4,0.9-0.7,1.5-0.7C217.6,32.2,218.3,32.8,218.3,34.1z"/>
	<path class="st6" d="M219.4,34.4c0-1.3,1-2.2,2.3-2.2s2.3,0.9,2.3,2.2s-1,2.2-2.3,2.2S219.4,35.7,219.4,34.4z M223.2,34.4
		c0-0.9-0.6-1.5-1.5-1.5c-0.8,0-1.5,0.6-1.5,1.5s0.6,1.5,1.5,1.5C222.5,36,223.2,35.4,223.2,34.4z"/>
	<path class="st6" d="M224.7,34.4c0-1.3,1-2.2,2.3-2.2s2.3,0.9,2.3,2.2s-1,2.2-2.3,2.2S224.7,35.7,224.7,34.4z M228.4,34.4
		c0-0.9-0.6-1.5-1.5-1.5s-1.5,0.6-1.5,1.5s0.6,1.5,1.5,1.5S228.4,35.4,228.4,34.4z"/>
	<path class="st6" d="M230.3,30.5h0.8v6.1h-0.8V30.5z"/>
	<path class="st6" d="M238.6,35.2h-3.1l-0.6,1.4h-0.9l2.6-5.8h0.8l2.6,5.8h-0.9L238.6,35.2z M238.3,34.5l-1.2-2.8l-1.2,2.8H238.3z"
		/>
	<path class="st6" d="M240.9,30.5h0.8v6.1h-0.8V30.5z"/>
	<path class="st6" d="M243.2,30.5h0.8v6.1h-0.8V30.5z"/>
	<path class="st6" d="M245.3,30.9c0-0.3,0.2-0.5,0.5-0.5s0.5,0.2,0.5,0.5c0,0.3-0.2,0.5-0.5,0.5C245.6,31.4,245.3,31.2,245.3,30.9z
		 M245.5,32.2h0.8v4.4h-0.8V32.2z"/>
	<path class="st6" d="M251.3,34v2.6h-0.8V36c-0.3,0.4-0.8,0.6-1.4,0.6c-1,0-1.6-0.5-1.6-1.3c0-0.7,0.5-1.3,1.8-1.3h1.3v-0.2
		c0-0.7-0.4-1.1-1.2-1.1c-0.5,0-1,0.2-1.4,0.5l-0.3-0.6c0.5-0.4,1.1-0.6,1.8-0.6C250.6,32.2,251.3,32.8,251.3,34z M250.5,35.3v-0.6
		h-1.2c-0.8,0-1,0.3-1,0.7c0,0.4,0.4,0.7,1,0.7C249.8,36.1,250.3,35.8,250.5,35.3z"/>
	<path class="st6" d="M256.9,34.1v2.5h-0.8v-2.4c0-0.9-0.4-1.3-1.2-1.3c-0.8,0-1.4,0.5-1.4,1.5v2.3h-0.8v-4.4h0.8v0.7
		c0.3-0.4,0.9-0.7,1.6-0.7C256.1,32.2,256.9,32.8,256.9,34.1z"/>
</g>
<g class="st0">
	<path class="st6" d="M257.9,34.4c0-1.3,1-2.2,2.3-2.2c0.8,0,1.4,0.3,1.8,0.9l-0.6,0.4c-0.3-0.4-0.7-0.6-1.2-0.6
		c-0.9,0-1.5,0.6-1.5,1.5c0,0.9,0.6,1.5,1.5,1.5c0.5,0,0.9-0.2,1.2-0.6l0.6,0.4c-0.3,0.6-1,0.9-1.8,0.9
		C258.9,36.7,257.9,35.7,257.9,34.4z"/>
</g>
<g class="st0">
	<path class="st6" d="M266.9,34.7h-3.5c0.1,0.8,0.7,1.3,1.6,1.3c0.5,0,0.9-0.2,1.3-0.5l0.4,0.5c-0.4,0.5-1,0.7-1.7,0.7
		c-1.4,0-2.4-0.9-2.4-2.2c0-1.3,0.9-2.2,2.2-2.2c1.3,0,2.2,0.9,2.2,2.3C266.9,34.5,266.9,34.6,266.9,34.7z M263.4,34.1h2.8
		c-0.1-0.7-0.6-1.3-1.4-1.3C264,32.9,263.4,33.4,263.4,34.1z"/>
</g>
</svg>
